<svg xmlns="http://www.w3.org/2000/svg" viewBox="0 0 1200 800"><defs><radialGradient id="g"><stop stop-color="#6b421d" stop-opacity=".65"/><stop offset="1" stop-color="#050505" stop-opacity="0"/></radialGradient><linearGradient id="b" x2="1"><stop stop-color="#050505"/><stop offset=".45" stop-color="#2a2926"/><stop offset="1" stop-color="#050505"/></linearGradient><linearGradient id="m" x2="1" y2="1"><stop stop-color="#1a1815"/><stop offset="1" stop-color="#050505"/></linearGradient></defs><rect width="1200" height="800" fill="#050505"/><rect width="1200" height="800" fill="url(#g)"/><path d="M0 530h1200v270H0z" fill="url(#m)"/><path d="M0 650c170-60 320 55 490 0s350-8 510 25 150-15 200-35" fill="none" stroke="#9b7140" stroke-opacity=".25" stroke-width="3"/><g transform="translate(235 145)"><rect x="20" width="200" height="72" rx="22" fill="#151515" stroke="#4c463e"/><g stroke="#36332f"><path d="M30 8v55M45 8v55M60 8v55M75 8v55M90 8v55M105 8v55M120 8v55M135 8v55M150 8v55M165 8v55M180 8v55M195 8v55M210 8v55"/></g><rect y="58" width="240" height="410" rx="42" fill="url(#b)" stroke="#4b4439" stroke-width="2"/><text x="120" y="210" fill="#d7b371" font-size="38" text-anchor="middle" font-family="Georgia">CRU LAB</text><text x="120" y="250" fill="#c08c43" font-size="17" text-anchor="middle" font-family="Arial">Prototype No.01</text><line x1="55" y1="275" x2="185" y2="275" stroke="#7a5b2c"/><text x="120" y="315" fill="#d5c4a6" font-size="12" text-anchor="middle" font-family="Arial">CREATE FOR YOURSELF</text><text x="120" y="342" fill="#d5c4a6" font-size="12" text-anchor="middle" font-family="Arial">SHARE WITH THE WORLD</text><text x="120" y="410" fill="#c89547" font-size="14" text-anchor="middle" font-family="Arial">60 CAPSULES</text></g><g transform="translate(635 65)"><rect width="450" height="300" rx="20" fill="#0b0b0b" stroke="#473b30" stroke-width="4"/><rect x="24" y="24" width="402" height="252" rx="5" fill="#e7dfd2"/><text x="52" y="70" fill="#26211c" font-size="25" font-family="Arial" font-weight="700">Research Library</text><rect x="52" y="92" width="330" height="16" rx="8" fill="#c6bcaf"/><text x="52" y="148" fill="#2b251f" font-size="16" font-family="Arial">Blood orange extract and</text><text x="52" y="176" fill="#2b251f" font-size="16" font-family="Arial">weight management study</text><g fill="#8c7458" transform="translate(300 150)"><rect width="18" height="70"/><rect x="28" y="25" width="18" height="45"/><rect x="56" y="5" width="18" height="65"/><rect x="84" y="36" width="18" height="34"/></g><path d="M-42 300h535l55 46H-88z" fill="#171717" stroke="#473b30" stroke-width="3"/></g><g transform="translate(600 390)"><path d="M0 55Q0 10 50 10h515q50 0 50 45v280q0 38-38 38H38Q0 373 0 335z" fill="#eee4d1" stroke="#5a4630" stroke-width="4"/><line x1="307" y1="25" x2="307" y2="360" stroke="#b7a484" stroke-width="2"/><text x="35" y="72" fill="#2b231b" font-size="24" font-family="Georgia">Prototype No.01</text><text x="45" y="135" fill="#31271e" font-size="20" font-family="Arial">Sleep   ✓</text><text x="45" y="175" fill="#31271e" font-size="20" font-family="Arial">Weight  ✓</text><text x="45" y="215" fill="#31271e" font-size="20" font-family="Arial">Stress  ✓</text><text x="340" y="140" fill="#31271e" font-size="18" font-family="Arial">Morosil®</text><text x="340" y="180" fill="#31271e" font-size="18" font-family="Arial">Cerebiome®</text><text x="340" y="220" fill="#31271e" font-size="18" font-family="Arial">Verisol®</text><text x="340" y="260" fill="#31271e" font-size="18" font-family="Arial">L-Theanine</text></g><g transform="translate(540 260)"><rect width="145" height="255" rx="22" fill="#52321c" fill-opacity=".24" stroke="#b08a60" stroke-width="3"/><rect x="18" y="92" width="109" height="95" fill="#17100b"/><text x="72" y="125" fill="#d3a459" font-size="22" text-anchor="middle" font-family="Georgia">Morosil®</text><text x="72" y="153" fill="#b98745" font-size="11" text-anchor="middle" font-family="Arial">BLOOD ORANGE</text><text x="72" y="172" fill="#b98745" font-size="11" text-anchor="middle" font-family="Arial">EXTRACT</text></g><g transform="translate(535 515)"><circle r="62" fill="#6b1e15" stroke="#c57247" stroke-width="5"/><circle r="45" fill="#972c1a"/><path d="M0-45V45M-45 0H45M-32-32L32 32M32-32L-32 32" stroke="#ee9868" stroke-width="4"/><circle r="9" fill="#f2b27a"/></g><g transform="translate(120 595)"><ellipse cx="90" cy="60" rx="100" ry="38" fill="#c6ae8f"/><path d="M10 60q18-52 80-52t80 52z" fill="#d2bea0"/><ellipse cx="90" cy="60" rx="100" ry="38" fill="none" stroke="#eadcc6" stroke-width="5"/></g><g fill="#d7bd97" stroke="#80684e" stroke-width="2" transform="translate(420 640) rotate(18)"><rect width="52" height="20" rx="10"/><rect x="60" y="10" width="52" height="20" rx="10"/><rect x="118" y="-4" width="52" height="20" rx="10"/></g></svg>