<svg xmlns="http://www.w3.org/2000/svg" viewBox="0 0 1200 800"><defs><linearGradient id="bg" x1="0" x2="1"><stop stop-color="#ece5d8"/><stop offset="1" stop-color="#cdbfa9"/></linearGradient><linearGradient id="pack" x1="0" x2="1"><stop stop-color="#171717"/><stop offset="1" stop-color="#3b3124"/></linearGradient></defs><rect width="1200" height="800" fill="url(#bg)"/><g opacity=".22" stroke="#7b6a51"><path d="M90 110h1020M90 690h1020M90 110v580M1110 110v580"/></g><g transform="translate(185 145)"><rect x="0" y="110" width="235" height="390" rx="28" fill="url(#pack)" stroke="#6f5a38"/><rect x="55" y="35" width="125" height="95" rx="18" fill="#1a1a1a"/><text x="118" y="285" text-anchor="middle" fill="#d5b56a" font-size="34" font-family="serif">CRU YOURS</text><text x="118" y="330" text-anchor="middle" fill="#8f7c58" font-size="12" letter-spacing="4">CREATED BY YOU</text></g><g transform="translate(550 160)"><rect x="0" y="0" width="360" height="500" fill="#f4efe6" stroke="#ad9c7f"/><text x="180" y="95" text-anchor="middle" fill="#171717" font-size="42" font-family="serif">CRU YOURS</text><line x1="55" x2="305" y1="130" y2="130" stroke="#b59a62"/><text x="55" y="185" fill="#826b45" font-size="15" letter-spacing="3">FOR A REAL NEED</text><rect x="55" y="235" width="250" height="12" rx="6" fill="#d5ccbd"/><rect x="55" y="270" width="220" height="12" rx="6" fill="#ddd5c7"/><rect x="55" y="305" width="235" height="12" rx="6" fill="#ddd5c7"/><circle cx="180" cy="405" r="58" fill="#1b1b1b"/><text x="180" y="414" text-anchor="middle" fill="#d5b56a" font-size="19">C</text></g><g fill="#ad8b4e"><circle cx="1010" cy="210" r="18"/><circle cx="990" cy="300" r="11"/><circle cx="1035" cy="390" r="14"/></g><text x="70" y="80" fill="#8e6e35" font-size="18" letter-spacing="6">CRU LAB / BRAND STUDIO</text><text x="770" y="725" fill="#6e604e" font-size="22">NAME · STORY · PACKAGING</text></svg>