<svg xmlns="http://www.w3.org/2000/svg" viewBox="0 0 1200 800"><defs><linearGradient id="bg" y1="0" y2="1"><stop stop-color="#f5f1e8"/><stop offset="1" stop-color="#ded4c2"/></linearGradient><linearGradient id="jar"><stop stop-color="#332b20"/><stop offset="1" stop-color="#090909"/></linearGradient></defs><rect width="1200" height="800" fill="url(#bg)"/><path d="M0 590C220 510 340 690 540 610S900 420 1200 560V800H0Z" fill="#c9b898" opacity=".38"/><g transform="translate(600 130)"><rect x="0" y="110" width="210" height="390" rx="42" fill="url(#jar)"/><rect x="45" y="45" width="120" height="90" rx="18" fill="#171717"/><text x="105" y="310" text-anchor="middle" fill="#d3b36c" font-size="33" font-family="serif">CRU LAB</text><text x="105" y="350" text-anchor="middle" fill="#b69a5e" font-size="14" letter-spacing="4">INGREDIENT 01</text></g><g fill="none" stroke="#756545" stroke-width="5"><path d="M240 610C210 470 260 330 410 230"/><path d="M275 510C360 470 430 390 470 300"/></g><g fill="#68754a"><ellipse cx="330" cy="420" rx="55" ry="20" transform="rotate(-28 330 420)"/><ellipse cx="390" cy="350" rx="60" ry="22" transform="rotate(22 390 350)"/><ellipse cx="255" cy="520" rx="62" ry="23" transform="rotate(-12 255 520)"/></g><g fill="#9b3f35"><circle cx="930" cy="470" r="62"/><circle cx="1025" cy="520" r="48"/><circle cx="940" cy="585" r="43"/></g><text x="70" y="95" fill="#8e7440" font-size="18" letter-spacing="6">INGREDIENT DATABASE / EDITORIAL SERIES</text></svg>