<svg xmlns="http://www.w3.org/2000/svg" viewBox="0 0 1200 800"><defs><linearGradient id="bg" x1="0" x2="1"><stop stop-color="#f7f3eb"/><stop offset="1" stop-color="#ddd2be"/></linearGradient><radialGradient id="r"><stop stop-color="#b33b2e" stop-opacity=".9"/><stop offset="1" stop-color="#742019" stop-opacity=".2"/></radialGradient></defs><rect width="1200" height="800" fill="url(#bg)"/><g opacity=".18" stroke="#7f704f"><path d="M80 130h1040M80 260h1040M80 390h1040M80 520h1040M80 650h1040"/><path d="M200 80v640M400 80v640M600 80v640M800 80v640M1000 80v640"/></g><g transform="translate(150 160)"><circle cx="180" cy="190" r="145" fill="url(#r)"/><circle cx="180" cy="190" r="108" fill="#c94331"/><circle cx="180" cy="190" r="70" fill="#8d1e18"/><g fill="#f5cbbb"><circle cx="140" cy="150" r="11"/><circle cx="214" cy="142" r="11"/><circle cx="120" cy="220" r="11"/><circle cx="238" cy="225" r="11"/><circle cx="180" cy="190" r="11"/></g></g><g transform="translate(555 130)"><path d="M80 470C130 250 180 160 300 40" fill="none" stroke="#536b3b" stroke-width="18"/><g fill="#698a4c"><ellipse cx="150" cy="300" rx="90" ry="42" transform="rotate(-26 150 300)"/><ellipse cx="245" cy="205" rx="100" ry="46" transform="rotate(24 245 205)"/><ellipse cx="305" cy="95" rx="80" ry="38" transform="rotate(-18 305 95)"/></g></g><g transform="translate(850 260)"><ellipse cx="100" cy="210" rx="115" ry="70" fill="#f4efe3"/><ellipse cx="100" cy="210" rx="72" ry="42" fill="#d8cdb9"/><path d="M100 40c50 80 70 120 70 165a70 70 0 1 1-140 0c0-45 20-85 70-165z" fill="#f7fafc" stroke="#b9c2c9" stroke-width="8"/></g><text x="70" y="90" fill="#9a7a3d" font-size="18" letter-spacing="6">CRU LAB / INGREDIENT ATLAS</text><text x="70" y="740" fill="#6f6250" font-size="24">SOURCE · EVIDENCE · APPLICATION</text></svg>