<svg xmlns="http://www.w3.org/2000/svg" viewBox="0 0 1200 800"><defs><linearGradient id="bg" x1="0" x2="1"><stop stop-color="#091019"/><stop offset="1" stop-color="#111d2b"/></linearGradient><radialGradient id="glow"><stop stop-color="#8fb7d6" stop-opacity=".28"/><stop offset="1" stop-color="#8fb7d6" stop-opacity="0"/></radialGradient></defs><rect width="1200" height="800" fill="url(#bg)"/><circle cx="890" cy="300" r="330" fill="url(#glow)"/><g transform="translate(100 135)"><rect width="520" height="520" rx="24" fill="#f5f3ed"/><rect x="45" y="55" width="430" height="18" rx="9" fill="#c7c4bc"/><rect x="45" y="95" width="360" height="12" rx="6" fill="#dedbd3"/><rect x="45" y="145" width="170" height="265" rx="14" fill="#e4e1da"/><path d="M255 390V240h45v150zm70 0V185h45v205zm70 0V285h45v105z" fill="#6c8190"/><path d="M255 320c60-80 110-15 185-135" fill="none" stroke="#bd9b58" stroke-width="8"/><rect x="45" y="445" width="410" height="11" rx="5" fill="#d5d2ca"/><rect x="45" y="475" width="360" height="11" rx="5" fill="#d5d2ca"/></g><g transform="translate(720 180)"><circle cx="150" cy="150" r="112" fill="none" stroke="#9cb6c7" stroke-width="24"/><circle cx="150" cy="150" r="58" fill="#1b2d3a" stroke="#d4b267" stroke-width="8"/><path d="M150 38v224M38 150h224" stroke="#6e8798" stroke-width="10"/><rect x="130" y="260" width="40" height="220" rx="20" fill="#b9c9d4" transform="rotate(-20 150 370)"/></g><text x="70" y="80" fill="#d2ad5c" font-size="18" letter-spacing="6">CRU LAB / RESEARCH CENTER</text><text x="705" y="690" fill="#9bb0be" font-size="22" letter-spacing="3">METHOD · RESULT · LIMITATION</text></svg>