<svg xmlns="http://www.w3.org/2000/svg" viewBox="0 0 1200 800"><defs><linearGradient id="bg" x1="0" x2="1"><stop stop-color="#020202"/><stop offset="1" stop-color="#17120d"/></linearGradient><radialGradient id="g"><stop stop-color="#d4af62" stop-opacity=".3"/><stop offset="1" stop-color="#d4af62" stop-opacity="0"/></radialGradient></defs><rect width="1200" height="800" fill="url(#bg)"/><circle cx="600" cy="360" r="420" fill="url(#g)"/><g transform="translate(135 200)"><g><rect x="0" y="90" width="180" height="330" rx="28" fill="#121212" stroke="#4a3c29"/><rect x="45" y="25" width="90" height="85" rx="16" fill="#171717"/><text x="90" y="255" text-anchor="middle" fill="#d5b56a" font-size="26" font-family="serif">SLEEP</text></g><g transform="translate(250)"><rect x="0" y="70" width="180" height="350" rx="20" fill="#251f18" stroke="#5b472d"/><text x="90" y="245" text-anchor="middle" fill="#d5b56a" font-size="24" font-family="serif">METABOLIC</text></g><g transform="translate(500)"><rect x="0" y="120" width="160" height="300" rx="44" fill="#e9e1d5" stroke="#b6a486"/><rect x="45" y="45" width="70" height="95" rx="18" fill="#dfd4c5"/><text x="80" y="260" text-anchor="middle" fill="#493c2b" font-size="24" font-family="serif">SKIN</text></g><g transform="translate(735)"><rect x="0" y="105" width="160" height="315" rx="18" fill="#0f0f0f" stroke="#4a3b28"/><rect x="30" y="25" width="100" height="95" rx="10" fill="#151515"/><text x="80" y="255" text-anchor="middle" fill="#d5b56a" font-size="22" font-family="serif">DAILY</text></g></g><ellipse cx="600" cy="670" rx="470" ry="28" fill="#000" opacity=".6"/><text x="70" y="80" fill="#d2ad5c" font-size="18" letter-spacing="6">CRU SHOP / STORY-LED PRODUCTS</text><text x="70" y="740" fill="#8f7a55" font-size="22">CREATED FOR A REAL NEED</text></svg>